# xmcd CD database file
#
# Track frame offsets:
#	150
#	16508
#	33004
#	50543
#	65174
#	87151
#	105821
#	123408
#	148576
#	167505
#
# Disc length: 2469 seconds
#
# Revision: 0
# Processed by: cddbd v1.5.2PL0 Copyright (c) Steve Scherf et al.
# Submitted via: CDex 1.51
#
DISCID=7109a30a
DTITLE=Jim Cohen - Cohen Goin' Country
DYEAR=2008
DGENRE=Country
TTITLE0=I Always Get Lucky With You
TTITLE1=Green, Green Grass of Home
TTITLE2=Shuffle Off to Tupelo
TTITLE3=Tennessee Waltz
TTITLE4=Blue Eyes Crying in the Rain
TTITLE5=Mansion on the Hill
TTITLE6=Let it be Me
TTITLE7=Neverending Song of Love
TTITLE8=End of the World
TTITLE9=Different Drum
EXTD=YEAR: 2008
EXTT0=
EXTT1=
EXTT2=
EXTT3=
EXTT4=
EXTT5=
EXTT6=
EXTT7=
EXTT8=
EXTT9=
PLAYORDER=
